<svg width="16" height="16" viewBox="0 0 16 16" fill="none" xmlns="http://www.w3.org/2000/svg">
<path fill-rule="evenodd" clip-rule="evenodd" d="M8.00044 -0.000427246C5.8788 0.000266741 3.84426 0.84339 2.34404 2.34361C0.843817 3.84383 0.000693987 5.87837 0 8.00001C0.000693987 10.1216 0.843817 12.1562 2.34404 13.6564C3.84426 15.1566 5.8788 15.9998 8.00044 16.0004C10.1219 15.9995 12.1562 15.1563 13.6563 13.6561C15.1563 12.1559 15.9993 10.1215 16 8.00001C15.9993 5.87852 15.1563 3.84412 13.6563 2.34392C12.1562 0.843724 10.1219 0.000498042 8.00044 -0.000427246ZM11.7873 6.3322C12.0709 6.04855 12.0709 5.58775 11.7873 5.30323C11.5036 5.01872 11.0428 5.01959 10.7592 5.30323L6.90951 9.1529L5.2417 7.48596C4.95805 7.20232 4.49725 7.20232 4.21273 7.48596C3.92822 7.7696 3.92909 8.23041 4.21273 8.51405L6.39459 10.6959C6.67823 10.9796 7.13904 10.9796 7.42355 10.6959L11.7873 6.3322Z" fill="#00A656"/>
</svg>
