<svg width="326" height="36" viewBox="0 0 326 36" fill="none" xmlns="http://www.w3.org/2000/svg">
<path d="M19.8223 28.9004C19.8546 25.5961 19.0169 22.9091 17.9513 22.8987C16.8856 22.8883 15.9956 25.5585 15.9633 28.8627C15.931 32.167 16.7687 34.8541 17.8343 34.8645C18.9 34.8749 19.79 32.2047 19.8223 28.9004Z" fill="white"/>
<path d="M13.6419 28.15C15.4557 25.3878 16.2038 22.6744 15.313 22.0895C14.4222 21.5045 12.2297 23.2695 10.416 26.0318C8.60228 28.794 7.85413 31.5073 8.74491 32.0923C9.63577 32.6772 11.8282 30.9122 13.6419 28.15Z" fill="white"/>
<path d="M8.84111 24.187C11.8604 22.844 13.9568 20.966 13.5236 19.9922C13.0906 19.0185 10.2919 19.3179 7.27267 20.6609C4.25345 22.0039 2.157 23.8819 2.59012 24.8556C3.02323 25.8294 5.8219 25.53 8.84111 24.187Z" fill="white"/>
<path d="M13.1612 17.2616C13.3233 16.2083 10.8071 14.947 7.54121 14.4443C4.2752 13.9416 1.49619 14.388 1.33407 15.4413C1.17196 16.4945 3.68813 17.7558 6.95411 18.2585C10.22 18.7613 12.9991 18.3149 13.1612 17.2616Z" fill="white"/>
<path d="M14.3337 14.7524C15.0394 13.954 13.6043 11.5327 11.1283 9.34438C8.6523 7.1561 6.07298 6.02947 5.36725 6.828C4.66152 7.62653 6.09663 10.0478 8.57266 12.2361C11.0487 14.4244 13.628 15.551 14.3337 14.7524Z" fill="white"/>
<path d="M16.669 13.286C17.6945 12.9959 17.7963 10.183 16.8966 7.00347C15.9969 3.82388 14.4363 1.48155 13.4108 1.77172C12.3854 2.06189 12.2835 4.87467 13.1832 8.05428C14.0829 11.2338 15.6436 13.5762 16.669 13.286Z" fill="white"/>
<path d="M23.0103 8.15322C23.9726 4.99199 23.9262 2.17774 22.9067 1.86741C21.8872 1.55708 20.2806 3.86817 19.3183 7.0294C18.3561 10.1906 18.4025 13.0049 19.422 13.3152C20.4415 13.6255 22.0481 11.3145 23.0103 8.15322Z" fill="white"/>
<path d="M27.5411 12.4247C30.0594 10.2852 31.5416 7.89243 30.8516 7.08029C30.1616 6.26813 27.5607 7.34415 25.0425 9.48356C22.5241 11.623 21.042 14.0158 21.732 14.828C22.422 15.6401 25.0228 14.5642 27.5411 12.4247Z" fill="white"/>
<path d="M29.0393 18.4694C32.3146 18.0312 34.8551 16.8197 34.7137 15.7634C34.5725 14.7071 31.8028 14.2061 28.5275 14.6442C25.2523 15.0824 22.7117 16.2939 22.853 17.3502C22.9944 18.4064 25.764 18.9076 29.0393 18.4694Z" fill="white"/>
<path d="M33.2642 25.1575C33.7165 24.1926 31.6575 22.2736 28.6653 20.8713C25.6732 19.469 22.881 19.1146 22.4287 20.0795C21.9765 21.0445 24.0355 22.9635 27.0277 24.3658C30.0198 25.768 32.812 26.1225 33.2642 25.1575Z" fill="white"/>
<path d="M26.9704 32.2775C27.8725 31.7103 27.178 28.9827 25.4191 26.1852C23.6602 23.3878 21.503 21.58 20.6008 22.1472C19.6987 22.7144 20.3932 25.4421 22.1521 28.2395C23.9109 31.0369 26.0682 32.8448 26.9704 32.2775Z" fill="white"/>
<path d="M55.976 23.024H49.688L48.68 26H44.384L50.48 9.152H55.232L61.328 26H56.984L55.976 23.024ZM54.92 19.856L52.832 13.688L50.768 19.856H54.92ZM67.2873 14.504C67.6873 13.88 68.2393 13.376 68.9433 12.992C69.6473 12.608 70.4713 12.416 71.4153 12.416C72.5193 12.416 73.5193 12.696 74.4153 13.256C75.3113 13.816 76.0153 14.616 76.5273 15.656C77.0553 16.696 77.3193 17.904 77.3193 19.28C77.3193 20.656 77.0553 21.872 76.5273 22.928C76.0153 23.968 75.3113 24.776 74.4153 25.352C73.5193 25.912 72.5193 26.192 71.4153 26.192C70.4873 26.192 69.6633 26 68.9433 25.616C68.2393 25.232 67.6873 24.736 67.2873 24.128V32.384H63.1833V12.608H67.2873V14.504ZM73.1433 19.28C73.1433 18.256 72.8553 17.456 72.2793 16.88C71.7193 16.288 71.0233 15.992 70.1913 15.992C69.3753 15.992 68.6793 16.288 68.1033 16.88C67.5433 17.472 67.2633 18.28 67.2633 19.304C67.2633 20.328 67.5433 21.136 68.1033 21.728C68.6793 22.32 69.3753 22.616 70.1913 22.616C71.0073 22.616 71.7033 22.32 72.2793 21.728C72.8553 21.12 73.1433 20.304 73.1433 19.28ZM85.5684 26.192C84.2564 26.192 83.0724 25.912 82.0164 25.352C80.9764 24.792 80.1524 23.992 79.5444 22.952C78.9524 21.912 78.6564 20.696 78.6564 19.304C78.6564 17.928 78.9604 16.72 79.5684 15.68C80.1764 14.624 81.0084 13.816 82.0644 13.256C83.1204 12.696 84.3044 12.416 85.6164 12.416C86.9284 12.416 88.1124 12.696 89.1684 13.256C90.2244 13.816 91.0564 14.624 91.6644 15.68C92.2724 16.72 92.5764 17.928 92.5764 19.304C92.5764 20.68 92.2644 21.896 91.6404 22.952C91.0324 23.992 90.1924 24.792 89.1204 25.352C88.0644 25.912 86.8804 26.192 85.5684 26.192ZM85.5684 22.64C86.3524 22.64 87.0164 22.352 87.5604 21.776C88.1204 21.2 88.4004 20.376 88.4004 19.304C88.4004 18.232 88.1284 17.408 87.5844 16.832C87.0564 16.256 86.4004 15.968 85.6164 15.968C84.8164 15.968 84.1524 16.256 83.6244 16.832C83.0964 17.392 82.8324 18.216 82.8324 19.304C82.8324 20.376 83.0884 21.2 83.6004 21.776C84.1284 22.352 84.7844 22.64 85.5684 22.64ZM102.218 22.52V26H100.13C98.6416 26 97.4816 25.64 96.6496 24.92C95.8176 24.184 95.4016 22.992 95.4016 21.344V16.016H93.7696V12.608H95.4016V9.344H99.5056V12.608H102.194V16.016H99.5056V21.392C99.5056 21.792 99.6016 22.08 99.7936 22.256C99.9856 22.432 100.306 22.52 100.754 22.52H102.218ZM106.568 11.216C105.848 11.216 105.256 11.008 104.792 10.592C104.344 10.16 104.12 9.632 104.12 9.008C104.12 8.368 104.344 7.84 104.792 7.424C105.256 6.992 105.848 6.776 106.568 6.776C107.272 6.776 107.848 6.992 108.296 7.424C108.76 7.84 108.992 8.368 108.992 9.008C108.992 9.632 108.76 10.16 108.296 10.592C107.848 11.008 107.272 11.216 106.568 11.216ZM108.608 12.608V26H104.504V12.608H108.608ZM119.766 26L115.686 20.384V26H111.582V8.24H115.686V18.056L119.742 12.608H124.806L119.238 19.328L124.854 26H119.766ZM130.808 17.552C130.808 15.888 131.168 14.408 131.888 13.112C132.608 11.8 133.608 10.784 134.888 10.064C136.184 9.328 137.648 8.96 139.28 8.96C141.28 8.96 142.992 9.488 144.416 10.544C145.84 11.6 146.792 13.04 147.272 14.864H142.76C142.424 14.16 141.944 13.624 141.32 13.256C140.712 12.888 140.016 12.704 139.232 12.704C137.968 12.704 136.944 13.144 136.16 14.024C135.376 14.904 134.984 16.08 134.984 17.552C134.984 19.024 135.376 20.2 136.16 21.08C136.944 21.96 137.968 22.4 139.232 22.4C140.016 22.4 140.712 22.216 141.32 21.848C141.944 21.48 142.424 20.944 142.76 20.24H147.272C146.792 22.064 145.84 23.504 144.416 24.56C142.992 25.6 141.28 26.12 139.28 26.12C137.648 26.12 136.184 25.76 134.888 25.04C133.608 24.304 132.608 23.288 131.888 21.992C131.168 20.696 130.808 19.216 130.808 17.552ZM148.969 19.28C148.969 17.904 149.225 16.696 149.737 15.656C150.265 14.616 150.977 13.816 151.873 13.256C152.769 12.696 153.769 12.416 154.873 12.416C155.817 12.416 156.641 12.608 157.345 12.992C158.065 13.376 158.617 13.88 159.001 14.504V12.608H163.105V26H159.001V24.104C158.601 24.728 158.041 25.232 157.321 25.616C156.617 26 155.793 26.192 154.849 26.192C153.761 26.192 152.769 25.912 151.873 25.352C150.977 24.776 150.265 23.968 149.737 22.928C149.225 21.872 148.969 20.656 148.969 19.28ZM159.001 19.304C159.001 18.28 158.713 17.472 158.137 16.88C157.577 16.288 156.889 15.992 156.073 15.992C155.257 15.992 154.561 16.288 153.985 16.88C153.425 17.456 153.145 18.256 153.145 19.28C153.145 20.304 153.425 21.12 153.985 21.728C154.561 22.32 155.257 22.616 156.073 22.616C156.889 22.616 157.577 22.32 158.137 21.728C158.713 21.136 159.001 20.328 159.001 19.304ZM174.306 12.464C175.842 12.464 177.074 12.976 178.002 14C178.93 15.008 179.394 16.4 179.394 18.176V26H175.314V18.728C175.314 17.832 175.082 17.136 174.618 16.64C174.154 16.144 173.53 15.896 172.746 15.896C171.962 15.896 171.338 16.144 170.874 16.64C170.41 17.136 170.178 17.832 170.178 18.728V26H166.074V8.24H170.178V14.408C170.594 13.816 171.162 13.344 171.882 12.992C172.602 12.64 173.41 12.464 174.306 12.464ZM181.43 19.28C181.43 17.904 181.686 16.696 182.198 15.656C182.726 14.616 183.438 13.816 184.334 13.256C185.23 12.696 186.23 12.416 187.334 12.416C188.278 12.416 189.102 12.608 189.806 12.992C190.526 13.376 191.078 13.88 191.462 14.504V12.608H195.566V26H191.462V24.104C191.062 24.728 190.502 25.232 189.782 25.616C189.078 26 188.254 26.192 187.31 26.192C186.222 26.192 185.23 25.912 184.334 25.352C183.438 24.776 182.726 23.968 182.198 22.928C181.686 21.872 181.43 20.656 181.43 19.28ZM191.462 19.304C191.462 18.28 191.174 17.472 190.598 16.88C190.038 16.288 189.35 15.992 188.534 15.992C187.718 15.992 187.022 16.288 186.446 16.88C185.886 17.456 185.606 18.256 185.606 19.28C185.606 20.304 185.886 21.12 186.446 21.728C187.022 22.32 187.718 22.616 188.534 22.616C189.35 22.616 190.038 22.32 190.598 21.728C191.174 21.136 191.462 20.328 191.462 19.304ZM212.215 12.608L203.815 32.36H199.399L202.471 25.544L197.023 12.608H201.607L204.703 20.984L207.775 12.608H212.215ZM212.883 19.28C212.883 17.904 213.139 16.696 213.651 15.656C214.179 14.616 214.891 13.816 215.787 13.256C216.683 12.696 217.683 12.416 218.787 12.416C219.731 12.416 220.555 12.608 221.259 12.992C221.979 13.376 222.531 13.88 222.915 14.504V12.608H227.019V26H222.915V24.104C222.515 24.728 221.955 25.232 221.235 25.616C220.531 26 219.707 26.192 218.763 26.192C217.675 26.192 216.683 25.912 215.787 25.352C214.891 24.776 214.179 23.968 213.651 22.928C213.139 21.872 212.883 20.656 212.883 19.28ZM222.915 19.304C222.915 18.28 222.627 17.472 222.051 16.88C221.491 16.288 220.803 15.992 219.987 15.992C219.171 15.992 218.475 16.288 217.899 16.88C217.339 17.456 217.059 18.256 217.059 19.28C217.059 20.304 217.339 21.12 217.899 21.728C218.475 22.32 219.171 22.616 219.987 22.616C220.803 22.616 221.491 22.32 222.051 21.728C222.627 21.136 222.915 20.328 222.915 19.304ZM246.258 14.48C245.954 13.92 245.514 13.496 244.938 13.208C244.378 12.904 243.714 12.752 242.946 12.752C241.618 12.752 240.554 13.192 239.754 14.072C238.954 14.936 238.554 16.096 238.554 17.552C238.554 19.104 238.97 20.32 239.802 21.2C240.65 22.064 241.81 22.496 243.282 22.496C244.29 22.496 245.138 22.24 245.826 21.728C246.53 21.216 247.042 20.48 247.362 19.52H242.154V16.496H251.082V20.312C250.778 21.336 250.258 22.288 249.522 23.168C248.802 24.048 247.882 24.76 246.762 25.304C245.642 25.848 244.378 26.12 242.97 26.12C241.306 26.12 239.818 25.76 238.506 25.04C237.21 24.304 236.194 23.288 235.458 21.992C234.738 20.696 234.378 19.216 234.378 17.552C234.378 15.888 234.738 14.408 235.458 13.112C236.194 11.8 237.21 10.784 238.506 10.064C239.802 9.328 241.282 8.96 242.946 8.96C244.962 8.96 246.658 9.448 248.034 10.424C249.426 11.4 250.346 12.752 250.794 14.48H246.258ZM252.539 19.28C252.539 17.904 252.795 16.696 253.307 15.656C253.835 14.616 254.547 13.816 255.443 13.256C256.339 12.696 257.339 12.416 258.443 12.416C259.387 12.416 260.211 12.608 260.915 12.992C261.635 13.376 262.187 13.88 262.571 14.504V12.608H266.675V26H262.571V24.104C262.171 24.728 261.611 25.232 260.891 25.616C260.187 26 259.363 26.192 258.419 26.192C257.331 26.192 256.339 25.912 255.443 25.352C254.547 24.776 253.835 23.968 253.307 22.928C252.795 21.872 252.539 20.656 252.539 19.28ZM262.571 19.304C262.571 18.28 262.283 17.472 261.707 16.88C261.147 16.288 260.459 15.992 259.643 15.992C258.827 15.992 258.131 16.288 257.555 16.88C256.995 17.456 256.715 18.256 256.715 19.28C256.715 20.304 256.995 21.12 257.555 21.728C258.131 22.32 258.827 22.616 259.643 22.616C260.459 22.616 261.147 22.32 261.707 21.728C262.283 21.136 262.571 20.328 262.571 19.304ZM273.748 14.84C274.228 14.104 274.828 13.528 275.548 13.112C276.268 12.68 277.068 12.464 277.948 12.464V16.808H276.82C275.796 16.808 275.028 17.032 274.516 17.48C274.004 17.912 273.748 18.68 273.748 19.784V26H269.644V12.608H273.748V14.84ZM279.094 19.28C279.094 17.904 279.35 16.696 279.862 15.656C280.39 14.616 281.102 13.816 281.998 13.256C282.894 12.696 283.894 12.416 284.998 12.416C285.878 12.416 286.678 12.6 287.398 12.968C288.134 13.336 288.71 13.832 289.126 14.456V8.24H293.23V26H289.126V24.08C288.742 24.72 288.19 25.232 287.47 25.616C286.766 26 285.942 26.192 284.998 26.192C283.894 26.192 282.894 25.912 281.998 25.352C281.102 24.776 280.39 23.968 279.862 22.928C279.35 21.872 279.094 20.656 279.094 19.28ZM289.126 19.304C289.126 18.28 288.838 17.472 288.262 16.88C287.702 16.288 287.014 15.992 286.198 15.992C285.382 15.992 284.686 16.288 284.11 16.88C283.55 17.456 283.27 18.256 283.27 19.28C283.27 20.304 283.55 21.12 284.11 21.728C284.686 22.32 285.382 22.616 286.198 22.616C287.014 22.616 287.702 22.32 288.262 21.728C288.838 21.136 289.126 20.328 289.126 19.304ZM308.823 19.088C308.823 19.472 308.799 19.872 308.751 20.288H299.463C299.527 21.12 299.791 21.76 300.255 22.208C300.735 22.64 301.319 22.856 302.007 22.856C303.031 22.856 303.743 22.424 304.143 21.56H308.511C308.287 22.44 307.879 23.232 307.287 23.936C306.711 24.64 305.983 25.192 305.103 25.592C304.223 25.992 303.239 26.192 302.151 26.192C300.839 26.192 299.671 25.912 298.647 25.352C297.623 24.792 296.823 23.992 296.247 22.952C295.671 21.912 295.383 20.696 295.383 19.304C295.383 17.912 295.663 16.696 296.223 15.656C296.799 14.616 297.599 13.816 298.623 13.256C299.647 12.696 300.823 12.416 302.151 12.416C303.447 12.416 304.599 12.688 305.607 13.232C306.615 13.776 307.399 14.552 307.959 15.56C308.535 16.568 308.823 17.744 308.823 19.088ZM304.623 18.008C304.623 17.304 304.383 16.744 303.903 16.328C303.423 15.912 302.823 15.704 302.103 15.704C301.415 15.704 300.831 15.904 300.351 16.304C299.887 16.704 299.599 17.272 299.487 18.008H304.623ZM319.148 12.464C320.716 12.464 321.964 12.976 322.892 14C323.836 15.008 324.308 16.4 324.308 18.176V26H320.228V18.728C320.228 17.832 319.996 17.136 319.532 16.64C319.068 16.144 318.444 15.896 317.66 15.896C316.876 15.896 316.252 16.144 315.788 16.64C315.324 17.136 315.092 17.832 315.092 18.728V26H310.988V12.608H315.092V14.384C315.508 13.792 316.068 13.328 316.772 12.992C317.476 12.64 318.268 12.464 319.148 12.464Z" fill="white"/>
</svg>
