<svg width="437" height="54" viewBox="0 0 437 54" fill="none" xmlns="http://www.w3.org/2000/svg">
<path d="M29.1826 43.0479C29.2302 38.1832 27.9969 34.2273 26.4281 34.2119C24.8592 34.1967 23.5488 38.1278 23.5013 42.9923C23.4537 47.857 24.687 51.813 26.2558 51.8283C27.8248 51.8437 29.1351 47.9125 29.1826 43.0479Z" fill="white"/>
<path d="M20.0839 41.943C22.7541 37.8765 23.8556 33.8817 22.5441 33.0206C21.2326 32.1595 18.0048 34.7579 15.3347 38.8245C12.6644 42.8911 11.563 46.8857 12.8744 47.747C14.1859 48.6081 17.4136 46.0096 20.0839 41.943Z" fill="white"/>
<path d="M13.0159 36.1086C17.4609 34.1315 20.5473 31.3666 19.9096 29.933C19.272 28.4995 15.1518 28.9402 10.7068 30.9174C6.26184 32.8946 3.1754 35.6595 3.81305 37.093C4.45068 38.5265 8.57094 38.0858 13.0159 36.1086Z" fill="white"/>
<path d="M19.3762 25.913C19.6149 24.3623 15.9105 22.5053 11.1023 21.7652C6.29403 21.0251 2.20271 21.6823 1.96404 23.233C1.72537 24.7836 5.42973 26.6406 10.238 27.3806C15.0462 28.1207 19.1375 27.4635 19.3762 25.913Z" fill="white"/>
<path d="M21.1025 22.2189C22.1415 21.0433 20.0287 17.4786 16.3835 14.257C12.7383 11.0353 8.94095 9.3767 7.90196 10.5523C6.86297 11.7279 8.97576 15.2926 12.621 18.5143C16.2663 21.7359 20.0636 23.3945 21.1025 22.2189Z" fill="white"/>
<path d="M24.5405 20.06C26.0501 19.6328 26.2001 15.4917 24.8755 10.8107C23.5509 6.1296 21.2533 2.68117 19.7436 3.10836C18.234 3.53555 18.084 7.67659 19.4086 12.3577C20.7331 17.0386 23.0308 20.4871 24.5405 20.06Z" fill="white"/>
<path d="M33.8763 12.5033C35.293 7.84931 35.2247 3.70611 33.7238 3.24924C32.2228 2.79236 29.8576 6.19481 28.441 10.8488C27.0244 15.5028 27.0926 19.6461 28.5936 20.1029C30.0946 20.5598 32.4597 17.1574 33.8763 12.5033Z" fill="white"/>
<path d="M40.5464 18.7919C44.254 15.6421 46.4361 12.1194 45.4202 10.9238C44.4044 9.72807 40.5754 11.3122 36.8679 14.4619C33.1604 17.6117 30.9784 21.1344 31.9942 22.3301C33.01 23.5257 36.839 21.9417 40.5464 18.7919Z" fill="white"/>
<path d="M42.7522 27.691C47.5741 27.0459 51.3143 25.2623 51.1062 23.7072C50.8983 22.1522 46.8206 21.4145 41.9987 22.0596C37.1769 22.7047 33.4366 24.4882 33.6446 26.0434C33.8527 27.5984 37.9302 28.3361 42.7522 27.691Z" fill="white"/>
<path d="M48.9724 37.5375C49.6382 36.1169 46.6069 33.2916 42.2018 31.2272C37.7967 29.1627 33.6859 28.6409 33.0202 30.0615C32.3544 31.4822 35.3857 34.3074 39.7908 36.3719C44.1958 38.4362 48.3066 38.9582 48.9724 37.5375Z" fill="white"/>
<path d="M39.7065 48.0197C41.0347 47.1846 40.0122 43.1689 37.4227 39.0505C34.8332 34.9321 31.6573 32.2705 30.3291 33.1056C29.0009 33.9407 30.0234 37.9564 32.6129 42.0748C35.2023 46.1932 38.3783 48.8549 39.7065 48.0197Z" fill="white"/>
<path d="M76.968 34.032H68.584L67.24 38H61.512L69.64 15.536H75.976L84.104 38H78.312L76.968 34.032ZM75.56 29.808L72.776 21.584L70.024 29.808H75.56ZM92.0498 22.672C92.5831 21.84 93.3191 21.168 94.2578 20.656C95.1964 20.144 96.2951 19.888 97.5538 19.888C99.0258 19.888 100.359 20.2613 101.554 21.008C102.748 21.7547 103.687 22.8213 104.37 24.208C105.074 25.5947 105.426 27.2053 105.426 29.04C105.426 30.8747 105.074 32.496 104.37 33.904C103.687 35.2907 102.748 36.368 101.554 37.136C100.359 37.8827 99.0258 38.256 97.5538 38.256C96.3164 38.256 95.2178 38 94.2578 37.488C93.3191 36.976 92.5831 36.3147 92.0498 35.504V46.512H86.5778V20.144H92.0498V22.672ZM99.8578 29.04C99.8578 27.6747 99.4738 26.608 98.7058 25.84C97.9591 25.0507 97.0311 24.656 95.9218 24.656C94.8338 24.656 93.9058 25.0507 93.1378 25.84C92.3911 26.6293 92.0178 27.7067 92.0178 29.072C92.0178 30.4373 92.3911 31.5147 93.1378 32.304C93.9058 33.0933 94.8338 33.488 95.9218 33.488C97.0098 33.488 97.9378 33.0933 98.7058 32.304C99.4738 31.4933 99.8578 30.4053 99.8578 29.04ZM116.425 38.256C114.675 38.256 113.097 37.8827 111.689 37.136C110.302 36.3893 109.203 35.3227 108.393 33.936C107.603 32.5493 107.209 30.928 107.209 29.072C107.209 27.2373 107.614 25.6267 108.424 24.24C109.235 22.832 110.345 21.7547 111.753 21.008C113.161 20.2613 114.739 19.888 116.489 19.888C118.238 19.888 119.817 20.2613 121.225 21.008C122.633 21.7547 123.742 22.832 124.553 24.24C125.363 25.6267 125.769 27.2373 125.769 29.072C125.769 30.9067 125.353 32.528 124.521 33.936C123.71 35.3227 122.59 36.3893 121.161 37.136C119.753 37.8827 118.174 38.256 116.425 38.256ZM116.425 33.52C117.47 33.52 118.355 33.136 119.081 32.368C119.827 31.6 120.201 30.5013 120.201 29.072C120.201 27.6427 119.838 26.544 119.113 25.776C118.409 25.008 117.534 24.624 116.489 24.624C115.422 24.624 114.537 25.008 113.833 25.776C113.129 26.5227 112.777 27.6213 112.777 29.072C112.777 30.5013 113.118 31.6 113.801 32.368C114.505 33.136 115.379 33.52 116.425 33.52ZM138.624 33.36V38H135.84C133.856 38 132.309 37.52 131.2 36.56C130.09 35.5787 129.536 33.9893 129.536 31.792V24.688H127.36V20.144H129.536V15.792H135.008V20.144H138.592V24.688H135.008V31.856C135.008 32.3893 135.136 32.7733 135.392 33.008C135.648 33.2427 136.074 33.36 136.672 33.36H138.624ZM144.424 18.288C143.464 18.288 142.674 18.0107 142.056 17.456C141.458 16.88 141.16 16.176 141.16 15.344C141.16 14.4907 141.458 13.7867 142.056 13.232C142.674 12.656 143.464 12.368 144.424 12.368C145.362 12.368 146.13 12.656 146.728 13.232C147.346 13.7867 147.656 14.4907 147.656 15.344C147.656 16.176 147.346 16.88 146.728 17.456C146.13 18.0107 145.362 18.288 144.424 18.288ZM147.144 20.144V38H141.672V20.144H147.144ZM162.021 38L156.581 30.512V38H151.109V14.32H156.581V27.408L161.989 20.144H168.741L161.317 29.104L168.805 38H162.021ZM176.743 26.736C176.743 24.5173 177.224 22.544 178.184 20.816C179.144 19.0667 180.477 17.712 182.184 16.752C183.912 15.7707 185.864 15.28 188.04 15.28C190.706 15.28 192.989 15.984 194.888 17.392C196.786 18.8 198.056 20.72 198.696 23.152H192.68C192.232 22.2133 191.592 21.4987 190.76 21.008C189.949 20.5173 189.021 20.272 187.976 20.272C186.29 20.272 184.925 20.8587 183.88 22.032C182.834 23.2053 182.312 24.7733 182.312 26.736C182.312 28.6987 182.834 30.2667 183.88 31.44C184.925 32.6133 186.29 33.2 187.976 33.2C189.021 33.2 189.949 32.9547 190.76 32.464C191.592 31.9733 192.232 31.2587 192.68 30.32H198.696C198.056 32.752 196.786 34.672 194.888 36.08C192.989 37.4667 190.706 38.16 188.04 38.16C185.864 38.16 183.912 37.68 182.184 36.72C180.477 35.7387 179.144 34.384 178.184 32.656C177.224 30.928 176.743 28.9547 176.743 26.736ZM200.959 29.04C200.959 27.2053 201.3 25.5947 201.983 24.208C202.687 22.8213 203.636 21.7547 204.831 21.008C206.025 20.2613 207.359 19.888 208.831 19.888C210.089 19.888 211.188 20.144 212.127 20.656C213.087 21.168 213.823 21.84 214.335 22.672V20.144H219.807V38H214.335V35.472C213.801 36.304 213.055 36.976 212.095 37.488C211.156 38 210.057 38.256 208.799 38.256C207.348 38.256 206.025 37.8827 204.831 37.136C203.636 36.368 202.687 35.2907 201.983 33.904C201.3 32.496 200.959 30.8747 200.959 29.04ZM214.335 29.072C214.335 27.7067 213.951 26.6293 213.183 25.84C212.436 25.0507 211.519 24.656 210.431 24.656C209.343 24.656 208.415 25.0507 207.647 25.84C206.9 26.608 206.527 27.6747 206.527 29.04C206.527 30.4053 206.9 31.4933 207.647 32.304C208.415 33.0933 209.343 33.488 210.431 33.488C211.519 33.488 212.436 33.0933 213.183 32.304C213.951 31.5147 214.335 30.4373 214.335 29.072ZM234.741 19.952C236.789 19.952 238.432 20.6347 239.669 22C240.907 23.344 241.525 25.2 241.525 27.568V38H236.085V28.304C236.085 27.1093 235.776 26.1813 235.157 25.52C234.539 24.8587 233.707 24.528 232.661 24.528C231.616 24.528 230.784 24.8587 230.165 25.52C229.547 26.1813 229.237 27.1093 229.237 28.304V38H223.765V14.32H229.237V22.544C229.792 21.7547 230.549 21.1253 231.509 20.656C232.469 20.1867 233.547 19.952 234.741 19.952ZM244.24 29.04C244.24 27.2053 244.581 25.5947 245.264 24.208C245.968 22.8213 246.917 21.7547 248.112 21.008C249.306 20.2613 250.64 19.888 252.112 19.888C253.37 19.888 254.469 20.144 255.408 20.656C256.368 21.168 257.104 21.84 257.616 22.672V20.144H263.088V38H257.616V35.472C257.082 36.304 256.336 36.976 255.376 37.488C254.437 38 253.338 38.256 252.08 38.256C250.629 38.256 249.306 37.8827 248.112 37.136C246.917 36.368 245.968 35.2907 245.264 33.904C244.581 32.496 244.24 30.8747 244.24 29.04ZM257.616 29.072C257.616 27.7067 257.232 26.6293 256.464 25.84C255.717 25.0507 254.8 24.656 253.712 24.656C252.624 24.656 251.696 25.0507 250.928 25.84C250.181 26.608 249.808 27.6747 249.808 29.04C249.808 30.4053 250.181 31.4933 250.928 32.304C251.696 33.0933 252.624 33.488 253.712 33.488C254.8 33.488 255.717 33.0933 256.464 32.304C257.232 31.5147 257.616 30.4373 257.616 29.072ZM285.287 20.144L274.087 46.48H268.199L272.295 37.392L265.03 20.144H271.143L275.271 31.312L279.367 20.144H285.287ZM286.177 29.04C286.177 27.2053 286.519 25.5947 287.201 24.208C287.905 22.8213 288.855 21.7547 290.049 21.008C291.244 20.2613 292.577 19.888 294.049 19.888C295.308 19.888 296.407 20.144 297.345 20.656C298.305 21.168 299.041 21.84 299.553 22.672V20.144H305.025V38H299.553V35.472C299.02 36.304 298.273 36.976 297.313 37.488C296.375 38 295.276 38.256 294.017 38.256C292.567 38.256 291.244 37.8827 290.049 37.136C288.855 36.368 287.905 35.2907 287.201 33.904C286.519 32.496 286.177 30.8747 286.177 29.04ZM299.553 29.072C299.553 27.7067 299.169 26.6293 298.401 25.84C297.655 25.0507 296.737 24.656 295.649 24.656C294.561 24.656 293.633 25.0507 292.865 25.84C292.119 26.608 291.745 27.6747 291.745 29.04C291.745 30.4053 292.119 31.4933 292.865 32.304C293.633 33.0933 294.561 33.488 295.649 33.488C296.737 33.488 297.655 33.0933 298.401 32.304C299.169 31.5147 299.553 30.4373 299.553 29.072ZM330.677 22.64C330.272 21.8933 329.685 21.328 328.917 20.944C328.171 20.5387 327.285 20.336 326.261 20.336C324.491 20.336 323.072 20.9227 322.005 22.096C320.939 23.248 320.405 24.7947 320.405 26.736C320.405 28.8053 320.96 30.4267 322.069 31.6C323.2 32.752 324.747 33.328 326.709 33.328C328.053 33.328 329.184 32.9867 330.101 32.304C331.04 31.6213 331.723 30.64 332.149 29.36H325.205V25.328H337.109V30.416C336.704 31.7813 336.011 33.0507 335.029 34.224C334.069 35.3973 332.843 36.3467 331.349 37.072C329.856 37.7973 328.171 38.16 326.293 38.16C324.075 38.16 322.091 37.68 320.341 36.72C318.613 35.7387 317.259 34.384 316.277 32.656C315.317 30.928 314.837 28.9547 314.837 26.736C314.837 24.5173 315.317 22.544 316.277 20.816C317.259 19.0667 318.613 17.712 320.341 16.752C322.069 15.7707 324.043 15.28 326.261 15.28C328.949 15.28 331.211 15.9307 333.045 17.232C334.901 18.5333 336.128 20.336 336.725 22.64H330.677ZM339.052 29.04C339.052 27.2053 339.394 25.5947 340.076 24.208C340.78 22.8213 341.73 21.7547 342.924 21.008C344.119 20.2613 345.452 19.888 346.924 19.888C348.183 19.888 349.282 20.144 350.22 20.656C351.18 21.168 351.916 21.84 352.428 22.672V20.144H357.9V38H352.428V35.472C351.895 36.304 351.148 36.976 350.188 37.488C349.25 38 348.151 38.256 346.892 38.256C345.442 38.256 344.119 37.8827 342.924 37.136C341.73 36.368 340.78 35.2907 340.076 33.904C339.394 32.496 339.052 30.8747 339.052 29.04ZM352.428 29.072C352.428 27.7067 352.044 26.6293 351.276 25.84C350.53 25.0507 349.612 24.656 348.524 24.656C347.436 24.656 346.508 25.0507 345.74 25.84C344.994 26.608 344.62 27.6747 344.62 29.04C344.62 30.4053 344.994 31.4933 345.74 32.304C346.508 33.0933 347.436 33.488 348.524 33.488C349.612 33.488 350.53 33.0933 351.276 32.304C352.044 31.5147 352.428 30.4373 352.428 29.072ZM367.331 23.12C367.971 22.1387 368.771 21.3707 369.731 20.816C370.691 20.24 371.758 19.952 372.931 19.952V25.744H371.427C370.062 25.744 369.038 26.0427 368.355 26.64C367.672 27.216 367.331 28.24 367.331 29.712V38H361.859V20.144H367.331V23.12ZM374.459 29.04C374.459 27.2053 374.8 25.5947 375.483 24.208C376.187 22.8213 377.136 21.7547 378.331 21.008C379.525 20.2613 380.859 19.888 382.331 19.888C383.504 19.888 384.571 20.1333 385.531 20.624C386.512 21.1147 387.28 21.776 387.835 22.608V14.32H393.307V38H387.835V35.44C387.323 36.2933 386.587 36.976 385.627 37.488C384.688 38 383.589 38.256 382.331 38.256C380.859 38.256 379.525 37.8827 378.331 37.136C377.136 36.368 376.187 35.2907 375.483 33.904C374.8 32.496 374.459 30.8747 374.459 29.04ZM387.835 29.072C387.835 27.7067 387.451 26.6293 386.683 25.84C385.936 25.0507 385.019 24.656 383.931 24.656C382.843 24.656 381.915 25.0507 381.147 25.84C380.4 26.608 380.027 27.6747 380.027 29.04C380.027 30.4053 380.4 31.4933 381.147 32.304C381.915 33.0933 382.843 33.488 383.931 33.488C385.019 33.488 385.936 33.0933 386.683 32.304C387.451 31.5147 387.835 30.4373 387.835 29.072ZM414.097 28.784C414.097 29.296 414.065 29.8293 414.001 30.384H401.617C401.703 31.4933 402.055 32.3467 402.673 32.944C403.313 33.52 404.092 33.808 405.009 33.808C406.375 33.808 407.324 33.232 407.857 32.08H413.681C413.383 33.2533 412.839 34.3093 412.049 35.248C411.281 36.1867 410.311 36.9227 409.137 37.456C407.964 37.9893 406.652 38.256 405.201 38.256C403.452 38.256 401.895 37.8827 400.529 37.136C399.164 36.3893 398.097 35.3227 397.329 33.936C396.561 32.5493 396.177 30.928 396.177 29.072C396.177 27.216 396.551 25.5947 397.297 24.208C398.065 22.8213 399.132 21.7547 400.497 21.008C401.863 20.2613 403.431 19.888 405.201 19.888C406.929 19.888 408.465 20.2507 409.809 20.976C411.153 21.7013 412.199 22.736 412.945 24.08C413.713 25.424 414.097 26.992 414.097 28.784ZM408.497 27.344C408.497 26.4053 408.177 25.6587 407.537 25.104C406.897 24.5493 406.097 24.272 405.137 24.272C404.22 24.272 403.441 24.5387 402.801 25.072C402.183 25.6053 401.799 26.3627 401.649 27.344H408.497ZM427.864 19.952C429.955 19.952 431.619 20.6347 432.856 22C434.115 23.344 434.744 25.2 434.744 27.568V38H429.304V28.304C429.304 27.1093 428.995 26.1813 428.376 25.52C427.757 24.8587 426.925 24.528 425.88 24.528C424.835 24.528 424.003 24.8587 423.384 25.52C422.765 26.1813 422.456 27.1093 422.456 28.304V38H416.984V20.144H422.456V22.512C423.011 21.7227 423.757 21.104 424.696 20.656C425.635 20.1867 426.691 19.952 427.864 19.952Z" fill="white"/>
</svg>
